<svg width="32" height="32" viewBox="0 0 32 32" fill="none" xmlns="http://www.w3.org/2000/svg">
<path d="M6.85711 11.4286H3.42854C2.82233 11.4286 2.24095 11.6694 1.81229 12.0981C1.38364 12.5267 1.14282 13.1081 1.14282 13.7143V18.2857C1.14282 18.8919 1.38364 19.4733 1.81229 19.902C2.24095 20.3306 2.82233 20.5714 3.42854 20.5714H6.85711V11.4286Z" stroke="#4F46E4" stroke-width="2" stroke-linecap="round" stroke-linejoin="round"/>
<path d="M6.85718 20.5714L15.7943 26.9943C16.1254 27.2234 16.5112 27.3609 16.9126 27.393C17.314 27.4251 17.7167 27.3507 18.08 27.1771C18.4741 27.0001 18.8099 26.7151 19.0486 26.355C19.2872 25.995 19.419 25.5747 19.4286 25.1428V6.8571C19.4384 6.44663 19.3374 6.04111 19.1363 5.68315C18.9352 5.32518 18.6414 5.028 18.2857 4.82282C17.9224 4.64927 17.5197 4.57478 17.1183 4.60689C16.7169 4.639 16.3312 4.77657 16 5.00568L6.85718 11.4285" stroke="#4F46E4" stroke-width="2" stroke-linecap="round" stroke-linejoin="round"/>
<path d="M28.5713 9.14282C30.1605 11.0641 30.9756 13.5094 30.857 16C30.8227 18.8228 30.0335 21.5851 28.5713 24" stroke="#4F46E4" stroke-width="2" stroke-linecap="round" stroke-linejoin="round"/>
<path d="M24 12.5714C24.7946 13.5321 25.2022 14.7547 25.1429 16C25.2022 17.2453 24.7946 18.4679 24 19.4286" stroke="#4F46E4" stroke-width="2" stroke-linecap="round" stroke-linejoin="round"/>
</svg>
