<svg width="57" height="23" viewBox="0 0 57 23" fill="none" xmlns="http://www.w3.org/2000/svg">
<path d="M16.432 14.056C16.0587 14.056 15.7227 13.992 15.424 13.864C15.1253 13.7307 14.8907 13.544 14.72 13.304C14.5493 13.064 14.464 12.784 14.464 12.464H15.44C15.4613 12.704 15.5547 12.9013 15.72 13.056C15.8907 13.2107 16.128 13.288 16.432 13.288C16.7467 13.288 16.992 13.2133 17.168 13.064C17.344 12.9093 17.432 12.712 17.432 12.472C17.432 12.2853 17.376 12.1333 17.264 12.016C17.1573 11.8987 17.0213 11.808 16.856 11.744C16.696 11.68 16.472 11.6107 16.184 11.536C15.8213 11.44 15.5253 11.344 15.296 11.248C15.072 11.1467 14.88 10.992 14.72 10.784C14.56 10.576 14.48 10.2987 14.48 9.952C14.48 9.632 14.56 9.352 14.72 9.112C14.88 8.872 15.104 8.688 15.392 8.56C15.68 8.432 16.0133 8.368 16.392 8.368C16.9307 8.368 17.3707 8.504 17.712 8.776C18.0587 9.04267 18.2507 9.41067 18.288 9.88H17.28C17.264 9.67733 17.168 9.504 16.992 9.36C16.816 9.216 16.584 9.144 16.296 9.144C16.0347 9.144 15.8213 9.21067 15.656 9.344C15.4907 9.47733 15.408 9.66933 15.408 9.92C15.408 10.0907 15.4587 10.232 15.56 10.344C15.6667 10.4507 15.8 10.536 15.96 10.6C16.12 10.664 16.3387 10.7333 16.616 10.808C16.984 10.9093 17.2827 11.0107 17.512 11.112C17.7467 11.2133 17.944 11.3707 18.104 11.584C18.2693 11.792 18.352 12.072 18.352 12.424C18.352 12.7067 18.2747 12.9733 18.12 13.224C17.9707 13.4747 17.7493 13.6773 17.456 13.832C17.168 13.9813 16.8267 14.056 16.432 14.056ZM23.4201 9.592V14H22.5081V13.48C22.3641 13.6613 22.1748 13.8053 21.9401 13.912C21.7108 14.0133 21.4655 14.064 21.2041 14.064C20.8575 14.064 20.5455 13.992 20.2681 13.848C19.9961 13.704 19.7801 13.4907 19.6201 13.208C19.4655 12.9253 19.3881 12.584 19.3881 12.184V9.592H20.2921V12.048C20.2921 12.4427 20.3908 12.7467 20.5881 12.96C20.7855 13.168 21.0548 13.272 21.3961 13.272C21.7375 13.272 22.0068 13.168 22.2041 12.96C22.4068 12.7467 22.5081 12.4427 22.5081 12.048V9.592H23.4201ZM25.5354 10.248C25.6901 10.0347 25.9008 9.86133 26.1674 9.728C26.4394 9.58933 26.7408 9.52 27.0714 9.52C27.4608 9.52 27.8128 9.61333 28.1274 9.8C28.4421 9.98667 28.6901 10.2533 28.8714 10.6C29.0528 10.9413 29.1434 11.3333 29.1434 11.776C29.1434 12.2187 29.0528 12.616 28.8714 12.968C28.6901 13.3147 28.4394 13.5867 28.1194 13.784C27.8048 13.976 27.4554 14.072 27.0714 14.072C26.7301 14.072 26.4261 14.0053 26.1594 13.872C25.8981 13.7387 25.6901 13.568 25.5354 13.36V14H24.6234V8.08H25.5354V10.248ZM28.2154 11.776C28.2154 11.472 28.1514 11.2107 28.0234 10.992C27.9008 10.768 27.7354 10.6 27.5274 10.488C27.3248 10.3707 27.1061 10.312 26.8714 10.312C26.6421 10.312 26.4234 10.3707 26.2154 10.488C26.0128 10.6053 25.8474 10.776 25.7194 11C25.5968 11.224 25.5354 11.488 25.5354 11.792C25.5354 12.096 25.5968 12.3627 25.7194 12.592C25.8474 12.816 26.0128 12.9867 26.2154 13.104C26.4234 13.2213 26.6421 13.28 26.8714 13.28C27.1061 13.28 27.3248 13.2213 27.5274 13.104C27.7354 12.9813 27.9008 12.8053 28.0234 12.576C28.1514 12.3467 28.2154 12.08 28.2154 11.776ZM35.3813 9.52C35.728 9.52 36.0373 9.592 36.3093 9.736C36.5866 9.88 36.8026 10.0933 36.9573 10.376C37.1173 10.6587 37.1973 11 37.1973 11.4V14H36.2933V11.536C36.2933 11.1413 36.1946 10.84 35.9973 10.632C35.8 10.4187 35.5306 10.312 35.1893 10.312C34.848 10.312 34.576 10.4187 34.3733 10.632C34.176 10.84 34.0773 11.1413 34.0773 11.536V14H33.1733V11.536C33.1733 11.1413 33.0746 10.84 32.8773 10.632C32.68 10.4187 32.4106 10.312 32.0693 10.312C31.728 10.312 31.456 10.4187 31.2533 10.632C31.056 10.84 30.9573 11.1413 30.9573 11.536V14H30.0453V9.592H30.9573V10.096C31.1066 9.91467 31.296 9.77333 31.5253 9.672C31.7546 9.57067 32 9.52 32.2613 9.52C32.6133 9.52 32.928 9.59467 33.2053 9.744C33.4826 9.89333 33.696 10.1093 33.8453 10.392C33.9786 10.1253 34.1866 9.91467 34.4693 9.76C34.752 9.6 35.056 9.52 35.3813 9.52ZM38.8218 9.008C38.6565 9.008 38.5178 8.952 38.4058 8.84C38.2938 8.728 38.2378 8.58933 38.2378 8.424C38.2378 8.25867 38.2938 8.12 38.4058 8.008C38.5178 7.896 38.6565 7.84 38.8218 7.84C38.9818 7.84 39.1178 7.896 39.2298 8.008C39.3418 8.12 39.3978 8.25867 39.3978 8.424C39.3978 8.58933 39.3418 8.728 39.2298 8.84C39.1178 8.952 38.9818 9.008 38.8218 9.008ZM39.2698 9.592V14H38.3578V9.592H39.2698ZM41.5312 10.336V12.776C41.5312 12.9413 41.5685 13.0613 41.6432 13.136C41.7232 13.2053 41.8565 13.24 42.0432 13.24H42.6032V14H41.8832C41.4725 14 41.1579 13.904 40.9392 13.712C40.7205 13.52 40.6112 13.208 40.6112 12.776V10.336H40.0912V9.592H40.6112V8.496H41.5312V9.592H42.6032V10.336H41.5312Z" fill="#081A51"/>
<rect x="1" y="1" width="55" height="21" rx="4" stroke="#4F46E4" stroke-width="2"/>
</svg>
