<svg width="32" height="32" viewBox="0 0 32 32" fill="none" xmlns="http://www.w3.org/2000/svg">
<path d="M30.8571 26.2858V28.5715C30.8571 29.1777 30.6163 29.7591 30.1876 30.1877C29.7589 30.6164 29.1776 30.8572 28.5714 30.8572H26.2856" stroke="#4F46E4" stroke-width="2" stroke-linecap="round" stroke-linejoin="round"/>
<path d="M19.4284 30.8572H12.5713" stroke="#4F46E4" stroke-width="2" stroke-linecap="round" stroke-linejoin="round"/>
<path d="M1.14282 26.2858V28.5715C1.14282 29.1777 1.38364 29.7591 1.81229 30.1877C2.24095 30.6164 2.82233 30.8572 3.42854 30.8572H5.71425" stroke="#4F46E4" stroke-width="2" stroke-linecap="round" stroke-linejoin="round"/>
<path d="M30.8571 6.85718V4.57146C30.8571 3.96525 30.6163 3.38387 30.1876 2.95522C29.7589 2.52657 29.1776 2.28575 28.5714 2.28575H26.2856" stroke="#4F46E4" stroke-width="2" stroke-linecap="round" stroke-linejoin="round"/>
<path d="M19.4284 2.28577H12.5713" stroke="#4F46E4" stroke-width="2" stroke-linecap="round" stroke-linejoin="round"/>
<path d="M1.14282 13.7144L1.14282 20.5715" stroke="#4F46E4" stroke-width="2" stroke-linecap="round" stroke-linejoin="round"/>
<path d="M30.8572 13.7144V20.5715" stroke="#4F46E4" stroke-width="2" stroke-linecap="round" stroke-linejoin="round"/>
<path d="M1.14282 6.85718V4.57146C1.14282 3.96525 1.38364 3.38387 1.81229 2.95522C2.24095 2.52657 2.82233 2.28575 3.42854 2.28575H5.71425" stroke="#4F46E4" stroke-width="2" stroke-linecap="round" stroke-linejoin="round"/>
</svg>
