<svg width="32" height="32" viewBox="0 0 32 32" fill="none" xmlns="http://www.w3.org/2000/svg">
<g clip-path="url(#clip0_174_2)">
<path d="M9.14289 14.8344L1.80575 22.1029C1.59151 22.3154 1.42147 22.5682 1.30543 22.8467C1.18938 23.1253 1.12964 23.424 1.12964 23.7258C1.12964 24.0275 1.18938 24.3263 1.30543 24.6048C1.42147 24.8833 1.59151 25.1362 1.80575 25.3486L6.65146 30.1944C6.86395 30.4086 7.11675 30.5786 7.39529 30.6947C7.67382 30.8107 7.97258 30.8705 8.27432 30.8705C8.57606 30.8705 8.87482 30.8107 9.15335 30.6947C9.43189 30.5786 9.68469 30.4086 9.89718 30.1944L17.1658 22.8572" stroke="#4F46E4" stroke-width="2" stroke-linecap="round" stroke-linejoin="round"/>
<path d="M22.8571 17.1658L30.1257 9.89718C30.3399 9.68469 30.5099 9.43189 30.626 9.15335C30.742 8.87482 30.8018 8.57606 30.8018 8.27432C30.8018 7.97258 30.742 7.67382 30.626 7.39529C30.5099 7.11675 30.3399 6.86395 30.1257 6.65146L25.3485 1.80575C25.136 1.59151 24.8832 1.42147 24.6047 1.30543C24.3262 1.18938 24.0274 1.12964 23.7257 1.12964C23.4239 1.12964 23.1252 1.18938 22.8466 1.30543C22.5681 1.42147 22.3153 1.59151 22.1028 1.80575L14.8342 9.14289" stroke="#4F46E4" stroke-width="2" stroke-linecap="round" stroke-linejoin="round"/>
<path d="M20.5716 11.4286L11.4287 20.5714" stroke="#4F46E4" stroke-width="2" stroke-linecap="round" stroke-linejoin="round"/>
</g>
<defs>
<clipPath id="clip0_174_2">
<rect width="32" height="32" fill="white"/>
</clipPath>
</defs>
</svg>
