<svg width="32" height="32" viewBox="0 0 32 32" fill="none" xmlns="http://www.w3.org/2000/svg">
<path d="M2.14286 7.28571C2.77404 7.28571 3.28571 6.77404 3.28571 6.14286C3.28571 5.51167 2.77404 5 2.14286 5C1.51167 5 1 5.51167 1 6.14286C1 6.77404 1.51167 7.28571 2.14286 7.28571Z" stroke="#4F46E4" stroke-width="2" stroke-linecap="round" stroke-linejoin="round"/>
<path d="M10.1428 6.14282H30.7142" stroke="#4F46E4" stroke-width="2" stroke-linecap="round" stroke-linejoin="round"/>
<path d="M2.14286 17.5715C2.77404 17.5715 3.28571 17.0598 3.28571 16.4286C3.28571 15.7974 2.77404 15.2858 2.14286 15.2858C1.51167 15.2858 1 15.7974 1 16.4286C1 17.0598 1.51167 17.5715 2.14286 17.5715Z" stroke="#4F46E4" stroke-width="2" stroke-linecap="round" stroke-linejoin="round"/>
<path d="M10.1428 16.4286H30.7142" stroke="#4F46E4" stroke-width="2" stroke-linecap="round" stroke-linejoin="round"/>
<path d="M2.14286 27.8571C2.77404 27.8571 3.28571 27.3455 3.28571 26.7143C3.28571 26.0831 2.77404 25.5714 2.14286 25.5714C1.51167 25.5714 1 26.0831 1 26.7143C1 27.3455 1.51167 27.8571 2.14286 27.8571Z" stroke="#4F46E4" stroke-width="2" stroke-linecap="round" stroke-linejoin="round"/>
<path d="M10.1428 26.7142H30.7142" stroke="#4F46E4" stroke-width="2" stroke-linecap="round" stroke-linejoin="round"/>
</svg>
