<svg width="34" height="34" viewBox="0 0 34 34" fill="none" xmlns="http://www.w3.org/2000/svg">
<path d="M24.48 1.35999C22.0735 1.35999 19.9192 2.41717 18.4238 4.07999H4.31377C2.69346 4.07999 1.36002 5.41342 1.36002 7.03374V29.3887C1.34939 29.4605 1.34939 29.5295 1.36002 29.6012V29.6862C1.36002 31.3065 2.69346 32.64 4.31377 32.64H26.9663C28.5866 32.64 29.92 31.3065 29.92 29.6862V29.6225C29.9306 29.5508 29.9306 29.4817 29.92 29.41V15.9375C31.3517 14.0303 32.64 12.1683 32.64 9.51999C32.64 5.0203 28.9797 1.35999 24.48 1.35999ZM24.48 2.71999C28.2439 2.71999 31.28 5.75608 31.28 9.51999C31.28 11.8415 30.1299 13.3901 28.6238 15.385C27.1814 17.2948 25.4841 19.6005 24.48 23.0775C23.476 19.6005 21.7786 17.2948 20.3363 15.385C19.7758 14.6412 19.2499 13.9639 18.8275 13.2812C18.8275 13.2733 18.8275 13.268 18.8275 13.26C18.8196 13.2467 18.8142 13.2308 18.8063 13.2175C18.7771 13.1059 18.7186 13.0023 18.6363 12.92C18.0492 11.8867 17.68 10.8269 17.68 9.51999C17.68 5.75608 20.7161 2.71999 24.48 2.71999ZM4.31377 5.43999H17.425C16.7264 6.64061 16.32 8.03249 16.32 9.51999C16.32 10.973 16.7131 12.1842 17.2975 13.3025L2.72002 27.8587V7.03374C2.72002 6.1492 3.42924 5.43999 4.31377 5.43999ZM8.24502 6.79999C5.95002 6.79999 4.08002 8.66999 4.08002 10.965C4.08002 13.26 5.95002 15.1087 8.24502 15.1087C11.8788 15.1087 12.4977 11.8415 12.155 10.2212H8.24502V11.815H10.4975C10.2027 12.7765 9.40846 13.4725 8.24502 13.4725C6.86111 13.4725 5.73752 12.3489 5.73752 10.965C5.73752 9.58108 6.86111 8.45749 8.24502 8.45749C8.86658 8.45749 9.42174 8.67795 9.86002 9.05249L11.0288 7.88374C10.2903 7.2117 9.32346 6.79999 8.24502 6.79999ZM24.48 6.79999C22.9846 6.79999 21.76 8.02452 21.76 9.51999C21.76 11.0155 22.9846 12.24 24.48 12.24C25.9755 12.24 27.2 11.0155 27.2 9.51999C27.2 8.02452 25.9755 6.79999 24.48 6.79999ZM24.48 8.15999C25.2397 8.15999 25.84 8.7603 25.84 9.51999C25.84 10.2797 25.2397 10.88 24.48 10.88C23.7203 10.88 23.12 10.2797 23.12 9.51999C23.12 8.7603 23.7203 8.15999 24.48 8.15999ZM18.02 14.4925C18.4025 15.0689 18.801 15.6453 19.2313 16.2137C19.2366 16.2217 19.2472 16.227 19.2525 16.235L4.22877 31.2587C3.41596 31.2136 2.78643 30.584 2.74127 29.7712L18.02 14.4925ZM20.06 17.34C21.0322 18.6681 22.0017 20.1423 22.7375 22.0575L19.04 18.36L20.06 17.34ZM28.56 17.7862V27.8587L25.3938 24.7137C25.4256 24.658 25.4602 24.5942 25.4788 24.5437C25.5903 24.2489 25.5771 24.055 25.6275 23.8637C26.3049 21.2606 27.4125 19.3959 28.56 17.7862ZM18.0838 19.3162L28.5388 29.7712C28.4936 30.584 27.8641 31.2136 27.0513 31.2587L16.5963 20.8037L18.0838 19.3162ZM15.64 21.76L25.1388 31.28H6.14127L15.64 21.76Z" fill="#4F46E4"/>
</svg>
