<svg width="34" height="34" viewBox="0 0 34 34" fill="none" xmlns="http://www.w3.org/2000/svg">
<g clip-path="url(#clip0_121_266)">
<path d="M6.67864 22.4642C9.69648 22.4642 12.1429 20.0178 12.1429 16.9999C12.1429 13.9821 9.69648 11.5356 6.67864 11.5356C3.6608 11.5356 1.21436 13.9821 1.21436 16.9999C1.21436 20.0178 3.6608 22.4642 6.67864 22.4642Z" stroke="#4F46E4" stroke-width="2" stroke-linecap="round" stroke-linejoin="round"/>
<path d="M27.3215 32.7856C30.3393 32.7856 32.7857 30.3392 32.7857 27.3213C32.7857 24.3035 30.3393 21.8571 27.3215 21.8571C24.3036 21.8571 21.8572 24.3035 21.8572 27.3213C21.8572 30.3392 24.3036 32.7856 27.3215 32.7856Z" stroke="#4F46E4" stroke-width="2" stroke-linecap="round" stroke-linejoin="round"/>
<path d="M27.3215 12.1428C30.3393 12.1428 32.7857 9.69636 32.7857 6.67852C32.7857 3.66068 30.3393 1.21423 27.3215 1.21423C24.3036 1.21423 21.8572 3.66068 21.8572 6.67852C21.8572 9.69636 24.3036 12.1428 27.3215 12.1428Z" stroke="#4F46E4" stroke-width="2" stroke-linecap="round" stroke-linejoin="round"/>
<path d="M11.5601 14.5713L22.4401 9.10706" stroke="#4F46E4" stroke-width="2" stroke-linecap="round" stroke-linejoin="round"/>
<path d="M11.5601 19.4285L22.4401 24.8928" stroke="#4F46E4" stroke-width="2" stroke-linecap="round" stroke-linejoin="round"/>
</g>
<defs>
<clipPath id="clip0_121_266">
<rect width="34" height="34" fill="white"/>
</clipPath>
</defs>
</svg>
