<svg width="34" height="35" viewBox="0 0 34 35" fill="none" xmlns="http://www.w3.org/2000/svg">
<path d="M27.9286 5.60718H6.0715C3.38897 5.60718 1.21436 7.78179 1.21436 10.4643V25.0357C1.21436 27.7183 3.38897 29.8929 6.0715 29.8929H27.9286C30.6112 29.8929 32.7858 27.7183 32.7858 25.0357V10.4643C32.7858 7.78179 30.6112 5.60718 27.9286 5.60718Z" stroke="#4F46E4" stroke-width="2" stroke-linecap="round" stroke-linejoin="round"/>
<path d="M12.8957 23.3844V13.1844C12.8906 13.0122 12.9326 12.8418 13.0171 12.6917C13.1017 12.5416 13.2256 12.4174 13.3755 12.3325C13.5253 12.2475 13.6956 12.2051 13.8678 12.2097C14.04 12.2143 14.2077 12.2658 14.3528 12.3586L23.0957 17.4586C23.2418 17.5444 23.3629 17.6668 23.4471 17.8137C23.5312 17.9607 23.5755 18.1271 23.5755 18.2965C23.5755 18.4659 23.5312 18.6323 23.4471 18.7793C23.3629 18.9262 23.2418 19.0487 23.0957 19.1344L14.3528 24.2344C14.2045 24.32 14.0362 24.3649 13.8649 24.3645C13.6936 24.3641 13.5255 24.3185 13.3776 24.2322C13.2297 24.1459 13.1072 24.022 13.0225 23.8731C12.9379 23.7242 12.8941 23.5556 12.8957 23.3844V23.3844Z" stroke="#4F46E4" stroke-width="2" stroke-linecap="round" stroke-linejoin="round"/>
</svg>
