<svg width="800" height="800" viewBox="0 0 800 800" fill="none" xmlns="http://www.w3.org/2000/svg">
<path d="M171.429 285.714H85.7144C70.5592 285.714 56.0247 291.735 45.3083 302.451C34.5919 313.167 28.5715 327.702 28.5715 342.857V457.143C28.5715 472.298 34.5919 486.833 45.3083 497.549C56.0247 508.265 70.5592 514.286 85.7144 514.286H171.429V285.714Z" stroke="#4F46E4" stroke-width="24" stroke-linecap="round" stroke-linejoin="round"/>
<path d="M171.429 514.286L394.857 674.857C403.135 680.585 412.78 684.024 422.814 684.827C432.848 685.63 442.917 683.767 452 679.429C461.851 675.004 470.247 667.878 476.214 658.877C482.18 649.876 485.475 639.368 485.714 628.572V171.429C485.959 161.167 483.435 151.029 478.407 142.08C473.379 133.131 466.034 125.701 457.143 120.571C448.06 116.233 437.991 114.37 427.957 115.173C417.922 115.976 408.278 119.415 400 125.143L171.429 285.714" stroke="#4F46E4" stroke-width="24" stroke-linecap="round" stroke-linejoin="round"/>
<path d="M714.286 228.571C754.017 276.605 774.394 337.735 771.429 400C770.571 470.572 750.84 539.627 714.286 600" stroke="#4F46E4" stroke-width="24" stroke-linecap="round" stroke-linejoin="round"/>
<path d="M600 314.286C619.865 338.302 630.054 368.868 628.571 400C630.054 431.133 619.865 461.698 600 485.714" stroke="#4F46E4" stroke-width="24" stroke-linecap="round" stroke-linejoin="round"/>
</svg>
