<svg width="800" height="800" viewBox="0 0 800 800" fill="none" xmlns="http://www.w3.org/2000/svg">
<path d="M771.429 657.143V714.286C771.429 729.441 765.408 743.975 754.692 754.692C743.976 765.408 729.441 771.429 714.286 771.429H657.143" stroke="#4F46E4" stroke-width="30" stroke-linecap="round" stroke-linejoin="round"/>
<path d="M485.714 771.429H314.286" stroke="#4F46E4" stroke-width="30" stroke-linecap="round" stroke-linejoin="round"/>
<path d="M28.5715 657.143V714.286C28.5715 729.441 34.5919 743.975 45.3083 754.692C56.0247 765.408 70.5592 771.429 85.7144 771.429H142.857" stroke="#4F46E4" stroke-width="30" stroke-linecap="round" stroke-linejoin="round"/>
<path d="M771.429 171.429V114.286C771.429 99.1305 765.408 84.596 754.692 73.8796C743.976 63.1633 729.441 57.1429 714.286 57.1429H657.143" stroke="#4F46E4" stroke-width="30" stroke-linecap="round" stroke-linejoin="round"/>
<path d="M485.714 57.1428H314.286" stroke="#4F46E4" stroke-width="30" stroke-linecap="round" stroke-linejoin="round"/>
<path d="M28.5715 342.857V514.286" stroke="#4F46E4" stroke-width="30" stroke-linecap="round" stroke-linejoin="round"/>
<path d="M771.429 342.857V514.286" stroke="#4F46E4" stroke-width="30" stroke-linecap="round" stroke-linejoin="round"/>
<path d="M28.5715 171.429V114.286C28.5715 99.1305 34.5919 84.596 45.3083 73.8796C56.0247 63.1633 70.5592 57.1429 85.7144 57.1429H142.857" stroke="#4F46E4" stroke-width="30" stroke-linecap="round" stroke-linejoin="round"/>
</svg>
