<!DOCTYPE svg PUBLIC "-//W3C//DTD SVG 1.1//EN" "http://www.w3.org/Graphics/SVG/1.1/DTD/svg11.dtd">
<!-- Uploaded to: SVG Repo, www.svgrepo.com, Transformed by: SVG Repo Mixer Tools -->
<svg width="800px" height="800px" viewBox="0 0 24 24" xmlns="http://www.w3.org/2000/svg" fill="#4F46E4">
<g id="SVGRepo_bgCarrier" stroke-width="0"/>
<g id="SVGRepo_tracerCarrier" stroke-linecap="round" stroke-linejoin="round"/>
<g id="SVGRepo_iconCarrier">
<path d="M20.5 17h-17A2.502 2.502 0 0 1 1 14.5v-4A2.502 2.502 0 0 1 3.5 8h17a2.502 2.502 0 0 1 2.5 2.5v4a2.502 2.502 0 0 1-2.5 2.5zm-17-8A1.502 1.502 0 0 0 2 10.5v4A1.502 1.502 0 0 0 3.5 16h17a1.502 1.502 0 0 0 1.5-1.5v-4A1.502 1.502 0 0 0 20.5 9zM17 12H7v1h10z"/>
<path fill="none" d="M0 0h24v24H0z"/>
</g>
</svg>