<svg width="800" height="800" viewBox="0 0 800 800" fill="none" xmlns="http://www.w3.org/2000/svg">
<path d="M86.2858 771.429L714.857 771.429C746.416 771.429 772 745.845 772 714.286L772 85.7142C772 54.1551 746.416 28.5714 714.857 28.5714L86.2858 28.5714C54.7267 28.5714 29.143 54.1551 29.143 85.7142L29.143 714.286C29.143 745.845 54.7267 771.429 86.2858 771.429Z" stroke="#4F46E5" stroke-width="30" stroke-linecap="round" stroke-linejoin="round"/>
<path d="M528.572 371.429C583.8 371.429 628.572 326.657 628.572 271.429C628.572 216.2 583.8 171.429 528.572 171.429C473.343 171.429 428.572 216.2 428.572 271.429C428.572 326.657 473.343 371.429 528.572 371.429Z" stroke="#4F46E5" stroke-width="30" stroke-linecap="round" stroke-linejoin="round"/>
<path d="M537.143 771.429C518.743 673.428 466.123 585.153 388.671 522.354C311.218 459.555 213.973 426.317 114.286 428.571C85.5245 428.494 56.8219 431.173 28.5715 436.571" stroke="#4F46E5" stroke-width="30" stroke-linecap="round" stroke-linejoin="round"/>
<path d="M771.429 566.286C725.404 550.743 677.149 542.83 628.572 542.857C567.082 542.723 506.216 555.169 449.714 579.429" stroke="#4F46E5" stroke-width="30" stroke-linecap="round" stroke-linejoin="round"/>
</svg>
