<svg width="800" height="800" viewBox="0 0 800 800" fill="none" xmlns="http://www.w3.org/2000/svg">
<path d="M228.571 370.857L45.1428 552.571C39.7868 557.884 35.5357 564.204 32.6347 571.167C29.7336 578.13 28.24 585.599 28.24 593.143C28.24 600.686 29.7336 608.155 32.6347 615.119C35.5357 622.082 39.7868 628.402 45.1428 633.714L166.286 754.857C171.598 760.213 177.918 764.464 184.881 767.365C191.845 770.266 199.314 771.76 206.857 771.76C214.401 771.76 221.869 770.266 228.833 767.365C235.796 764.464 242.116 760.213 247.428 754.857L429.143 571.429" stroke="#4F46E4" stroke-width="30" stroke-linecap="round" stroke-linejoin="round"/>
<path d="M571.428 429.143L753.143 247.429C758.499 242.116 762.75 235.796 765.651 228.833C768.552 221.87 770.045 214.401 770.045 206.857C770.045 199.314 768.552 191.845 765.651 184.881C762.75 177.918 758.499 171.598 753.143 166.286L633.714 45.1429C628.402 39.787 622.082 35.5359 615.118 32.6348C608.155 29.7337 600.686 28.2401 593.143 28.2401C585.599 28.2401 578.13 29.7337 571.167 32.6348C564.203 35.5359 557.883 39.787 552.571 45.1429L370.857 228.571" stroke="#4F46E4" stroke-width="30" stroke-linecap="round" stroke-linejoin="round"/>
<path d="M514.286 285.714L285.714 514.286" stroke="#4F46E4" stroke-width="30" stroke-linecap="round" stroke-linejoin="round"/>
</svg>
