<svg width="800" height="800" viewBox="0 0 800 800" fill="none" xmlns="http://www.w3.org/2000/svg">
<path d="M53.5714 182.143C69.351 182.143 82.1429 169.351 82.1429 153.571C82.1429 137.792 69.351 125 53.5714 125C37.7919 125 25 137.792 25 153.571C25 169.351 37.7919 182.143 53.5714 182.143Z" stroke="#4F46E4" stroke-width="30" stroke-linecap="round" stroke-linejoin="round"/>
<path d="M253.572 153.571H767.857" stroke="#4F46E4" stroke-width="30" stroke-linecap="round" stroke-linejoin="round"/>
<path d="M53.5714 439.286C69.351 439.286 82.1429 426.494 82.1429 410.714C82.1429 394.935 69.351 382.143 53.5714 382.143C37.7919 382.143 25 394.935 25 410.714C25 426.494 37.7919 439.286 53.5714 439.286Z" stroke="#4F46E4" stroke-width="30" stroke-linecap="round" stroke-linejoin="round"/>
<path d="M253.572 410.714H767.857" stroke="#4F46E4" stroke-width="30" stroke-linecap="round" stroke-linejoin="round"/>
<path d="M53.5714 696.429C69.351 696.429 82.1429 683.637 82.1429 667.857C82.1429 652.078 69.351 639.286 53.5714 639.286C37.7919 639.286 25 652.078 25 667.857C25 683.637 37.7919 696.429 53.5714 696.429Z" stroke="#4F46E4" stroke-width="30" stroke-linecap="round" stroke-linejoin="round"/>
<path d="M253.572 667.857H767.857" stroke="#4F46E4" stroke-width="30" stroke-linecap="round" stroke-linejoin="round"/>
</svg>
