<svg width="800" height="800" viewBox="0 0 800 800" fill="none" xmlns="http://www.w3.org/2000/svg">
<path d="M657.143 114.286H142.857C79.739 114.286 28.5715 165.453 28.5715 228.571V571.429C28.5715 634.547 79.739 685.714 142.857 685.714H657.143C720.261 685.714 771.429 634.547 771.429 571.429V228.571C771.429 165.453 720.261 114.286 657.143 114.286Z" stroke="#4F46E4" stroke-width="30" stroke-linecap="round" stroke-linejoin="round"/>
<path d="M282.361 527.646V287.646C282.242 283.595 283.23 279.587 285.219 276.055C287.208 272.523 290.123 269.6 293.65 267.602C297.177 265.603 301.182 264.605 305.234 264.713C309.286 264.822 313.232 266.033 316.647 268.218L522.361 388.218C525.798 390.235 528.648 393.115 530.629 396.573C532.609 400.031 533.651 403.947 533.651 407.932C533.651 411.917 532.609 415.833 530.629 419.291C528.648 422.749 525.798 425.63 522.361 427.646L316.647 547.647C313.157 549.662 309.196 550.718 305.167 550.709C301.137 550.7 297.181 549.626 293.7 547.596C290.219 545.565 287.337 542.651 285.346 539.147C283.354 535.644 282.325 531.676 282.361 527.646V527.646Z" stroke="#4F46E4" stroke-width="30" stroke-linecap="round" stroke-linejoin="round"/>
</svg>
